<?xml version="1.0" standalone="no"?>
<!DOCTYPE svg PUBLIC "-//W3C//DTD SVG 20010904//EN"
 "http://www.w3.org/TR/2001/REC-SVG-20010904/DTD/svg10.dtd">
<svg version="1.0" xmlns="http://www.w3.org/2000/svg"
 width="512.000000pt" height="512.000000pt" viewBox="0 0 512.000000 512.000000"
 preserveAspectRatio="xMidYMid meet">
<metadata>
Created by potrace 1.14, written by Peter Selinger 2001-2017
</metadata>
<g transform="translate(0.000000,512.000000) scale(0.100000,-0.100000)"
fill="#000000" stroke="none">
<path d="M2953 4888 c-21 -11 -94 -53 -163 -93 -69 -39 -145 -83 -170 -97 -25
-14 -160 -92 -300 -173 -288 -166 -358 -207 -435 -250 -30 -17 -67 -40 -82
-51 l-28 -21 -2 -144 c-1 -79 -2 -152 -2 -161 -1 -10 -9 -18 -18 -18 -10 0
-60 -25 -112 -55 -51 -30 -97 -55 -102 -55 -5 0 -9 -4 -9 -9 0 -5 -9 -13 -20
-16 -12 -4 -65 -33 -118 -64 -53 -32 -117 -69 -142 -83 -25 -14 -164 -94 -310
-178 -146 -85 -293 -170 -328 -189 -44 -25 -65 -43 -69 -61 -4 -14 -6 -324 -6
-690 0 -595 2 -669 16 -697 17 -31 40 -47 197 -131 65 -34 230 -124 495 -267
39 -20 88 -48 110 -60 22 -12 76 -42 120 -65 44 -23 103 -55 130 -70 227 -125
241 -129 305 -96 88 46 146 79 154 87 26 25 32 6 31 -98 -1 -164 10 -184 135
-250 63 -33 695 -375 855 -463 28 -15 82 -44 120 -65 39 -20 89 -48 112 -62
80 -47 104 -42 273 56 30 18 63 35 73 38 9 3 17 9 17 14 0 5 4 9 10 9 8 0 160
83 220 120 8 5 101 58 205 116 175 99 218 123 315 177 95 53 117 69 134 98 18
31 19 62 19 731 0 642 -1 700 -17 716 -17 18 -93 64 -331 201 -199 114 -188
103 -129 136 27 15 66 38 86 51 72 46 68 6 69 777 0 382 -3 700 -6 709 -5 12
-282 183 -319 197 -6 2 -30 17 -53 32 -23 16 -44 29 -48 29 -3 0 -22 11 -43
23 -20 13 -57 35 -82 49 -61 34 -152 87 -298 175 -68 40 -125 73 -128 73 -3 0
-25 14 -49 30 -24 17 -46 30 -49 30 -3 0 -32 16 -64 35 -75 44 -118 50 -169
23z"/>
</g>
</svg>
